<svg xmlns="http://www.w3.org/2000/svg" xmlns:xlink="http://www.w3.org/1999/xlink" viewBox="0 0 350 5.11">
  <defs>
    <style>
      .cls-1, .cls-4 {
        fill: none;
      }

      .cls-2 {
        clip-path: url(#clip-path);
      }

      .cls-3 {
        opacity: 0.5;
      }

      .cls-4 {
        stroke: #4b3218;
        stroke-width: 2px;
      }
    </style>
    <clipPath id="clip-path">
      <rect class="cls-1" width="350" height="5.11"/>
    </clipPath>
  </defs>
  <g id="Repeat_Grid_84" data-name="Repeat Grid 84" class="cls-2">
    <g transform="translate(-273 -1546)">
      <g id="Symbol_21_37" data-name="Symbol 21 – 37" transform="translate(-372 -752.218)">
        <g id="Group_22" data-name="Group 22" class="cls-3" transform="translate(11 1149)">
          <g id="Group_17" data-name="Group 17" transform="translate(0 1)">
            <g id="Group_16" data-name="Group 16" transform="translate(356.074 166.308)">
              <path id="Path_11" data-name="Path 11" class="cls-4" d="M287.031,981.91c-2.3,3.113-4.216,3.546-5.105,5.11" transform="translate(-4)"/>
              <path id="Path_14" data-name="Path 14" class="cls-4" d="M287.031,981.91c-2.3,3.113-4.216,3.546-5.105,5.11" transform="translate(8.886)"/>
              <path id="Path_12" data-name="Path 12" class="cls-4" d="M5.105,0C2.806,3.113.889,3.546,0,5.11" transform="translate(289.474 987.021) rotate(180)"/>
              <path id="Path_13" data-name="Path 13" class="cls-4" d="M5.105,0C2.806,3.113.889,3.546,0,5.11" transform="translate(302.359 987.021) rotate(180)"/>
            </g>
          </g>
          <g id="Group_19" data-name="Group 19" transform="translate(26 1)">
            <g id="Group_16-2" data-name="Group 16" transform="translate(356.074 166.308)">
              <path id="Path_11-2" data-name="Path 11" class="cls-4" d="M287.031,981.91c-2.3,3.113-4.216,3.546-5.105,5.11" transform="translate(-4)"/>
              <path id="Path_14-2" data-name="Path 14" class="cls-4" d="M287.031,981.91c-2.3,3.113-4.216,3.546-5.105,5.11" transform="translate(8.886)"/>
              <path id="Path_12-2" data-name="Path 12" class="cls-4" d="M5.105,0C2.806,3.113.889,3.546,0,5.11" transform="translate(289.474 987.021) rotate(180)"/>
              <path id="Path_13-2" data-name="Path 13" class="cls-4" d="M5.105,0C2.806,3.113.889,3.546,0,5.11" transform="translate(302.359 987.021) rotate(180)"/>
            </g>
          </g>
          <g id="Group_20" data-name="Group 20" transform="translate(52 1)">
            <g id="Group_16-3" data-name="Group 16" transform="translate(356.074 166.308)">
              <path id="Path_11-3" data-name="Path 11" class="cls-4" d="M287.031,981.91c-2.3,3.113-4.216,3.546-5.105,5.11" transform="translate(-4)"/>
              <path id="Path_14-3" data-name="Path 14" class="cls-4" d="M287.031,981.91c-2.3,3.113-4.216,3.546-5.105,5.11" transform="translate(8.886)"/>
              <path id="Path_12-3" data-name="Path 12" class="cls-4" d="M5.105,0C2.806,3.113.889,3.546,0,5.11" transform="translate(289.474 987.021) rotate(180)"/>
              <path id="Path_13-3" data-name="Path 13" class="cls-4" d="M5.105,0C2.806,3.113.889,3.546,0,5.11" transform="translate(302.359 987.021) rotate(180)"/>
            </g>
          </g>
        </g>
      </g>
    </g>
    <g transform="translate(-195 -1546)">
      <g id="Symbol_21_38" data-name="Symbol 21 – 38" transform="translate(-372 -752.218)">
        <g id="Group_22-2" data-name="Group 22" class="cls-3" transform="translate(11 1149)">
          <g id="Group_17-2" data-name="Group 17" transform="translate(0 1)">
            <g id="Group_16-4" data-name="Group 16" transform="translate(356.074 166.308)">
              <path id="Path_11-4" data-name="Path 11" class="cls-4" d="M287.031,981.91c-2.3,3.113-4.216,3.546-5.105,5.11" transform="translate(-4)"/>
              <path id="Path_14-4" data-name="Path 14" class="cls-4" d="M287.031,981.91c-2.3,3.113-4.216,3.546-5.105,5.11" transform="translate(8.886)"/>
              <path id="Path_12-4" data-name="Path 12" class="cls-4" d="M5.105,0C2.806,3.113.889,3.546,0,5.11" transform="translate(289.474 987.021) rotate(180)"/>
              <path id="Path_13-4" data-name="Path 13" class="cls-4" d="M5.105,0C2.806,3.113.889,3.546,0,5.11" transform="translate(302.359 987.021) rotate(180)"/>
            </g>
          </g>
          <g id="Group_19-2" data-name="Group 19" transform="translate(26 1)">
            <g id="Group_16-5" data-name="Group 16" transform="translate(356.074 166.308)">
              <path id="Path_11-5" data-name="Path 11" class="cls-4" d="M287.031,981.91c-2.3,3.113-4.216,3.546-5.105,5.11" transform="translate(-4)"/>
              <path id="Path_14-5" data-name="Path 14" class="cls-4" d="M287.031,981.91c-2.3,3.113-4.216,3.546-5.105,5.11" transform="translate(8.886)"/>
              <path id="Path_12-5" data-name="Path 12" class="cls-4" d="M5.105,0C2.806,3.113.889,3.546,0,5.11" transform="translate(289.474 987.021) rotate(180)"/>
              <path id="Path_13-5" data-name="Path 13" class="cls-4" d="M5.105,0C2.806,3.113.889,3.546,0,5.11" transform="translate(302.359 987.021) rotate(180)"/>
            </g>
          </g>
          <g id="Group_20-2" data-name="Group 20" transform="translate(52 1)">
            <g id="Group_16-6" data-name="Group 16" transform="translate(356.074 166.308)">
              <path id="Path_11-6" data-name="Path 11" class="cls-4" d="M287.031,981.91c-2.3,3.113-4.216,3.546-5.105,5.11" transform="translate(-4)"/>
              <path id="Path_14-6" data-name="Path 14" class="cls-4" d="M287.031,981.91c-2.3,3.113-4.216,3.546-5.105,5.11" transform="translate(8.886)"/>
              <path id="Path_12-6" data-name="Path 12" class="cls-4" d="M5.105,0C2.806,3.113.889,3.546,0,5.11" transform="translate(289.474 987.021) rotate(180)"/>
              <path id="Path_13-6" data-name="Path 13" class="cls-4" d="M5.105,0C2.806,3.113.889,3.546,0,5.11" transform="translate(302.359 987.021) rotate(180)"/>
            </g>
          </g>
        </g>
      </g>
    </g>
    <g transform="translate(-117 -1546)">
      <g id="Symbol_21_39" data-name="Symbol 21 – 39" transform="translate(-372 -752.218)">
        <g id="Group_22-3" data-name="Group 22" class="cls-3" transform="translate(11 1149)">
          <g id="Group_17-3" data-name="Group 17" transform="translate(0 1)">
            <g id="Group_16-7" data-name="Group 16" transform="translate(356.074 166.308)">
              <path id="Path_11-7" data-name="Path 11" class="cls-4" d="M287.031,981.91c-2.3,3.113-4.216,3.546-5.105,5.11" transform="translate(-4)"/>
              <path id="Path_14-7" data-name="Path 14" class="cls-4" d="M287.031,981.91c-2.3,3.113-4.216,3.546-5.105,5.11" transform="translate(8.886)"/>
              <path id="Path_12-7" data-name="Path 12" class="cls-4" d="M5.105,0C2.806,3.113.889,3.546,0,5.11" transform="translate(289.474 987.021) rotate(180)"/>
              <path id="Path_13-7" data-name="Path 13" class="cls-4" d="M5.105,0C2.806,3.113.889,3.546,0,5.11" transform="translate(302.359 987.021) rotate(180)"/>
            </g>
          </g>
          <g id="Group_19-3" data-name="Group 19" transform="translate(26 1)">
            <g id="Group_16-8" data-name="Group 16" transform="translate(356.074 166.308)">
              <path id="Path_11-8" data-name="Path 11" class="cls-4" d="M287.031,981.91c-2.3,3.113-4.216,3.546-5.105,5.11" transform="translate(-4)"/>
              <path id="Path_14-8" data-name="Path 14" class="cls-4" d="M287.031,981.91c-2.3,3.113-4.216,3.546-5.105,5.11" transform="translate(8.886)"/>
              <path id="Path_12-8" data-name="Path 12" class="cls-4" d="M5.105,0C2.806,3.113.889,3.546,0,5.11" transform="translate(289.474 987.021) rotate(180)"/>
              <path id="Path_13-8" data-name="Path 13" class="cls-4" d="M5.105,0C2.806,3.113.889,3.546,0,5.11" transform="translate(302.359 987.021) rotate(180)"/>
            </g>
          </g>
          <g id="Group_20-3" data-name="Group 20" transform="translate(52 1)">
            <g id="Group_16-9" data-name="Group 16" transform="translate(356.074 166.308)">
              <path id="Path_11-9" data-name="Path 11" class="cls-4" d="M287.031,981.91c-2.3,3.113-4.216,3.546-5.105,5.11" transform="translate(-4)"/>
              <path id="Path_14-9" data-name="Path 14" class="cls-4" d="M287.031,981.91c-2.3,3.113-4.216,3.546-5.105,5.11" transform="translate(8.886)"/>
              <path id="Path_12-9" data-name="Path 12" class="cls-4" d="M5.105,0C2.806,3.113.889,3.546,0,5.11" transform="translate(289.474 987.021) rotate(180)"/>
              <path id="Path_13-9" data-name="Path 13" class="cls-4" d="M5.105,0C2.806,3.113.889,3.546,0,5.11" transform="translate(302.359 987.021) rotate(180)"/>
            </g>
          </g>
        </g>
      </g>
    </g>
    <g transform="translate(-39 -1546)">
      <g id="Symbol_21_40" data-name="Symbol 21 – 40" transform="translate(-372 -752.218)">
        <g id="Group_22-4" data-name="Group 22" class="cls-3" transform="translate(11 1149)">
          <g id="Group_17-4" data-name="Group 17" transform="translate(0 1)">
            <g id="Group_16-10" data-name="Group 16" transform="translate(356.074 166.308)">
              <path id="Path_11-10" data-name="Path 11" class="cls-4" d="M287.031,981.91c-2.3,3.113-4.216,3.546-5.105,5.11" transform="translate(-4)"/>
              <path id="Path_14-10" data-name="Path 14" class="cls-4" d="M287.031,981.91c-2.3,3.113-4.216,3.546-5.105,5.11" transform="translate(8.886)"/>
              <path id="Path_12-10" data-name="Path 12" class="cls-4" d="M5.105,0C2.806,3.113.889,3.546,0,5.11" transform="translate(289.474 987.021) rotate(180)"/>
              <path id="Path_13-10" data-name="Path 13" class="cls-4" d="M5.105,0C2.806,3.113.889,3.546,0,5.11" transform="translate(302.359 987.021) rotate(180)"/>
            </g>
          </g>
          <g id="Group_19-4" data-name="Group 19" transform="translate(26 1)">
            <g id="Group_16-11" data-name="Group 16" transform="translate(356.074 166.308)">
              <path id="Path_11-11" data-name="Path 11" class="cls-4" d="M287.031,981.91c-2.3,3.113-4.216,3.546-5.105,5.11" transform="translate(-4)"/>
              <path id="Path_14-11" data-name="Path 14" class="cls-4" d="M287.031,981.91c-2.3,3.113-4.216,3.546-5.105,5.11" transform="translate(8.886)"/>
              <path id="Path_12-11" data-name="Path 12" class="cls-4" d="M5.105,0C2.806,3.113.889,3.546,0,5.11" transform="translate(289.474 987.021) rotate(180)"/>
              <path id="Path_13-11" data-name="Path 13" class="cls-4" d="M5.105,0C2.806,3.113.889,3.546,0,5.11" transform="translate(302.359 987.021) rotate(180)"/>
            </g>
          </g>
          <g id="Group_20-4" data-name="Group 20" transform="translate(52 1)">
            <g id="Group_16-12" data-name="Group 16" transform="translate(356.074 166.308)">
              <path id="Path_11-12" data-name="Path 11" class="cls-4" d="M287.031,981.91c-2.3,3.113-4.216,3.546-5.105,5.11" transform="translate(-4)"/>
              <path id="Path_14-12" data-name="Path 14" class="cls-4" d="M287.031,981.91c-2.3,3.113-4.216,3.546-5.105,5.11" transform="translate(8.886)"/>
              <path id="Path_12-12" data-name="Path 12" class="cls-4" d="M5.105,0C2.806,3.113.889,3.546,0,5.11" transform="translate(289.474 987.021) rotate(180)"/>
              <path id="Path_13-12" data-name="Path 13" class="cls-4" d="M5.105,0C2.806,3.113.889,3.546,0,5.11" transform="translate(302.359 987.021) rotate(180)"/>
            </g>
          </g>
        </g>
      </g>
    </g>
    <g transform="translate(39 -1546)">
      <g id="Symbol_21_41" data-name="Symbol 21 – 41" transform="translate(-372 -752.218)">
        <g id="Group_22-5" data-name="Group 22" class="cls-3" transform="translate(11 1149)">
          <g id="Group_17-5" data-name="Group 17" transform="translate(0 1)">
            <g id="Group_16-13" data-name="Group 16" transform="translate(356.074 166.308)">
              <path id="Path_11-13" data-name="Path 11" class="cls-4" d="M287.031,981.91c-2.3,3.113-4.216,3.546-5.105,5.11" transform="translate(-4)"/>
              <path id="Path_14-13" data-name="Path 14" class="cls-4" d="M287.031,981.91c-2.3,3.113-4.216,3.546-5.105,5.11" transform="translate(8.886)"/>
              <path id="Path_12-13" data-name="Path 12" class="cls-4" d="M5.105,0C2.806,3.113.889,3.546,0,5.11" transform="translate(289.474 987.021) rotate(180)"/>
              <path id="Path_13-13" data-name="Path 13" class="cls-4" d="M5.105,0C2.806,3.113.889,3.546,0,5.11" transform="translate(302.359 987.021) rotate(180)"/>
            </g>
          </g>
          <g id="Group_19-5" data-name="Group 19" transform="translate(26 1)">
            <g id="Group_16-14" data-name="Group 16" transform="translate(356.074 166.308)">
              <path id="Path_11-14" data-name="Path 11" class="cls-4" d="M287.031,981.91c-2.3,3.113-4.216,3.546-5.105,5.11" transform="translate(-4)"/>
              <path id="Path_14-14" data-name="Path 14" class="cls-4" d="M287.031,981.91c-2.3,3.113-4.216,3.546-5.105,5.11" transform="translate(8.886)"/>
              <path id="Path_12-14" data-name="Path 12" class="cls-4" d="M5.105,0C2.806,3.113.889,3.546,0,5.11" transform="translate(289.474 987.021) rotate(180)"/>
              <path id="Path_13-14" data-name="Path 13" class="cls-4" d="M5.105,0C2.806,3.113.889,3.546,0,5.11" transform="translate(302.359 987.021) rotate(180)"/>
            </g>
          </g>
          <g id="Group_20-5" data-name="Group 20" transform="translate(52 1)">
            <g id="Group_16-15" data-name="Group 16" transform="translate(356.074 166.308)">
              <path id="Path_11-15" data-name="Path 11" class="cls-4" d="M287.031,981.91c-2.3,3.113-4.216,3.546-5.105,5.11" transform="translate(-4)"/>
              <path id="Path_14-15" data-name="Path 14" class="cls-4" d="M287.031,981.91c-2.3,3.113-4.216,3.546-5.105,5.11" transform="translate(8.886)"/>
              <path id="Path_12-15" data-name="Path 12" class="cls-4" d="M5.105,0C2.806,3.113.889,3.546,0,5.11" transform="translate(289.474 987.021) rotate(180)"/>
              <path id="Path_13-15" data-name="Path 13" class="cls-4" d="M5.105,0C2.806,3.113.889,3.546,0,5.11" transform="translate(302.359 987.021) rotate(180)"/>
            </g>
          </g>
        </g>
      </g>
    </g>
  </g>
</svg>
