<svg xmlns="http://www.w3.org/2000/svg" xmlns:xlink="http://www.w3.org/1999/xlink" viewBox="0 0 24 16.834">
  <defs>
    <style>
      .cls-1 {
        fill: #506956;
      }

      .cls-2 {
        clip-path: url(#clip-path);
      }
    </style>
    <clipPath id="clip-path">
      <path id="Path_207" data-name="Path 207" class="cls-1" d="M0-359.124H24v16.834H0Z" transform="translate(0 359.124)"/>
    </clipPath>
  </defs>
  <g id="Group_332" data-name="Group 332" transform="translate(0 359.124)">
    <g id="Group_286" data-name="Group 286" class="cls-2" transform="translate(0 -359.124)">
      <g id="Group_285" data-name="Group 285" transform="translate(0 0)">
        <path id="Path_206" data-name="Path 206" class="cls-1" d="M-440.09-282.452l-.093-.028a13.89,13.89,0,0,0-2-.364,21.38,21.38,0,0,0-2.4-.131,20.28,20.28,0,0,0-3.118.229,12.507,12.507,0,0,0-1.278.267l-.093.028v-11.974q.2-.07.441-.135a12.454,12.454,0,0,1,1.8-.327,19.885,19.885,0,0,1,2.249-.122,19.01,19.01,0,0,1,2.909.212,11.119,11.119,0,0,1,1.139.237c.159.043.306.088.44.135Zm-10.31,0-.094-.028a13.857,13.857,0,0,0-2-.364,21.4,21.4,0,0,0-2.4-.131,20.28,20.28,0,0,0-3.118.229,12.531,12.531,0,0,0-1.277.267l-.094.028v-11.974q.2-.07.441-.135a12.505,12.505,0,0,1,1.8-.327,19.873,19.873,0,0,1,2.249-.122,18.994,18.994,0,0,1,2.909.212,11.081,11.081,0,0,1,1.139.237q.239.065.441.135Zm11.582-12.7a.669.669,0,0,0-.327-.327,6.64,6.64,0,0,0-1.039-.365,14,14,0,0,0-2-.364,21.387,21.387,0,0,0-2.4-.131,20.188,20.188,0,0,0-3.118.229,12.507,12.507,0,0,0-1.278.267,7.408,7.408,0,0,0-.76.247,7.355,7.355,0,0,0-.76-.247,13.963,13.963,0,0,0-2-.364,21.408,21.408,0,0,0-2.4-.131,20.188,20.188,0,0,0-3.118.229,12.549,12.549,0,0,0-1.277.267,6.673,6.673,0,0,0-1.039.365.668.668,0,0,0-.326.327c-.507.127-1.084.364-1.084.785v12.207a2.126,2.126,0,0,0,2.126,2.126h8.569v.111a.417.417,0,0,0,.416.418h1.778a.417.417,0,0,0,.416-.418v-.111h8.569a2.126,2.126,0,0,0,2.126-2.126v-12.207c0-.421-.577-.658-1.084-.785" transform="translate(461.734 296.343)"/>
      </g>
    </g>
  </g>
</svg>
