<svg id="Group_11" data-name="Group 11" xmlns="http://www.w3.org/2000/svg" xmlns:xlink="http://www.w3.org/1999/xlink" viewBox="0 0 27.434 18">
  <defs>
    <style>
      .cls-1 {
        fill: #4b3218;
      }

      .cls-2 {
        clip-path: url(#clip-path);
      }
    </style>
    <clipPath id="clip-path">
      <path id="Path_9" data-name="Path 9" class="cls-1" d="M0-918.575H27.434v18H0Z" transform="translate(0 918.575)"/>
    </clipPath>
  </defs>
  <g id="Group_10" data-name="Group 10" class="cls-2">
    <g id="Group_6" data-name="Group 6" transform="translate(0 0)">
      <path id="Path_5" data-name="Path 5" class="cls-1" d="M0,0V2.806a16.175,16.175,0,0,1,5.9,1.1q.487.192.945.413a14.952,14.952,0,0,1,2.233-.856,16.422,16.422,0,0,1,4.638-.66,16.182,16.182,0,0,1,5.926,1.1q.487.192.945.413a14.963,14.963,0,0,1,2.234-.856,16.43,16.43,0,0,1,4.612-.66V0Z"/>
    </g>
    <g id="Group_7" data-name="Group 7" transform="translate(17.178 6.319)">
      <path id="Path_6" data-name="Path 6" class="cls-1" d="M0-216.3A3.391,3.391,0,0,0,.582-214.4a3.424,3.424,0,0,0,1.5,1.236,3.4,3.4,0,0,0,1.327.268,3.391,3.391,0,0,0,1.906-.582,3.427,3.427,0,0,0,1.237-1.5,3.4,3.4,0,0,0,.268-1.327,2.91,2.91,0,0,0-.219-1.072,4.726,4.726,0,0,0-.679-1.157,8.622,8.622,0,0,0-2.513-2.094,9.271,9.271,0,0,0-2.063,1.578,5.124,5.124,0,0,0-1.174,1.8A2.847,2.847,0,0,0,0-216.3" transform="translate(0 220.626)"/>
    </g>
    <g id="Group_8" data-name="Group 8" transform="translate(0 4.575)">
      <path id="Path_7" data-name="Path 7" class="cls-1" d="M-1197.068-104.87a6.874,6.874,0,0,1,1.567,2.435,4.614,4.614,0,0,1,.273,1.536,5.156,5.156,0,0,1-.885,2.9,5.193,5.193,0,0,1-2.278,1.876,5.168,5.168,0,0,1-2.016.407,5.161,5.161,0,0,1-2.9-.885,5.2,5.2,0,0,1-1.875-2.277,5.158,5.158,0,0,1-.407-2.016,4.914,4.914,0,0,1,.594-2.27,7.719,7.719,0,0,1,1.564-2.016,10.71,10.71,0,0,1,1.121-.917c-.271-.1-.549-.192-.834-.277a14.666,14.666,0,0,0-4.137-.588,14.465,14.465,0,0,0-4.972.864,10.391,10.391,0,0,1,1.44,1.232,6.889,6.889,0,0,1,1.567,2.435,4.611,4.611,0,0,1,.273,1.536,5.157,5.157,0,0,1-.885,2.9,5.194,5.194,0,0,1-2.277,1.876,5.17,5.17,0,0,1-2.016.407,5.16,5.16,0,0,1-2.9-.885,5.194,5.194,0,0,1-1.875-2.277,5.163,5.163,0,0,1-.407-2.016,4.917,4.917,0,0,1,.593-2.27,7.728,7.728,0,0,1,1.565-2.016,10.747,10.747,0,0,1,1.121-.917c-.271-.1-.548-.192-.834-.277a14.675,14.675,0,0,0-4.112-.588v13.425h27.434v-13.425a14.473,14.473,0,0,0-4.947.864,10.342,10.342,0,0,1,1.439,1.232" transform="translate(1220.994 106.966)"/>
    </g>
    <g id="Group_9" data-name="Group 9" transform="translate(3.436 6.319)">
      <path id="Path_8" data-name="Path 8" class="cls-1" d="M0-216.3A3.391,3.391,0,0,0,.582-214.4a3.424,3.424,0,0,0,1.5,1.236,3.4,3.4,0,0,0,1.327.268,3.392,3.392,0,0,0,1.906-.582,3.426,3.426,0,0,0,1.237-1.5,3.393,3.393,0,0,0,.268-1.327,2.918,2.918,0,0,0-.219-1.072,4.74,4.74,0,0,0-.678-1.157,8.63,8.63,0,0,0-2.513-2.094,9.263,9.263,0,0,0-2.063,1.578,5.124,5.124,0,0,0-1.174,1.8A2.844,2.844,0,0,0,0-216.3" transform="translate(0 220.626)"/>
    </g>
  </g>
</svg>
