<svg xmlns="http://www.w3.org/2000/svg" xmlns:xlink="http://www.w3.org/1999/xlink" viewBox="0 0 12.383 18.423">
  <defs>
    <style>
      .cls-1 {
        fill: #4b3218;
      }

      .cls-2 {
        clip-path: url(#clip-path);
      }
    </style>
    <clipPath id="clip-path">
      <path id="Path_30" data-name="Path 30" class="cls-1" d="M0-356.67H12.383v18.423H0Z" transform="translate(0 356.67)"/>
    </clipPath>
  </defs>
  <g id="Group_86" data-name="Group 86" transform="translate(0 356.67)">
    <g id="Group_85" data-name="Group 85" class="cls-2" transform="translate(0 -356.67)">
      <g id="Group_84" data-name="Group 84" transform="translate(0 0)">
        <path id="Path_29" data-name="Path 29" class="cls-1" d="M-201.339-249.738a1.229,1.229,0,0,1-1.228,1.228h-7.094a1.229,1.229,0,0,1-1.228-1.228v-10.713a1.229,1.229,0,0,1,1.228-1.228h7.094a1.229,1.229,0,0,1,1.228,1.228Zm-4.775,4.046a.99.99,0,0,1-.99-.99.99.99,0,0,1,.99-.99.99.99,0,0,1,.99.99.99.99,0,0,1-.99.99m3.926-17.649h-7.853a2.265,2.265,0,0,0-2.265,2.265v13.893a2.265,2.265,0,0,0,2.265,2.265h7.853a2.265,2.265,0,0,0,2.265-2.265v-13.893a2.265,2.265,0,0,0-2.265-2.265" transform="translate(212.305 263.34)"/>
      </g>
    </g>
  </g>
</svg>
