<svg xmlns="http://www.w3.org/2000/svg" viewBox="0 0 233.172 6.298">
  <defs>
    <style>
      .cls-1 {
        opacity: 0.5;
      }

      .cls-2 {
        fill: none;
        stroke: #4b3218;
        stroke-width: 2px;
      }
    </style>
  </defs>
  <g id="Group_48" data-name="Group 48" transform="translate(-559.131 -3387.406)">
    <g id="Symbol_5_4" data-name="Symbol 5 – 4" transform="translate(-85 1089.782)">
      <g id="Group_22" data-name="Group 22" class="cls-1" transform="translate(11 1149)">
        <g id="Group_17" data-name="Group 17" transform="translate(0 1)">
          <g id="Group_16" data-name="Group 16" transform="translate(356.074 166.308)">
            <path id="Path_11" data-name="Path 11" class="cls-2" d="M287.031,981.91c-2.3,3.113-4.216,3.546-5.105,5.11" transform="translate(-4)"/>
            <path id="Path_14" data-name="Path 14" class="cls-2" d="M287.031,981.91c-2.3,3.113-4.216,3.546-5.105,5.11" transform="translate(8.886)"/>
            <path id="Path_12" data-name="Path 12" class="cls-2" d="M5.105,0C2.806,3.113.889,3.546,0,5.11" transform="translate(289.474 987.021) rotate(180)"/>
            <path id="Path_13" data-name="Path 13" class="cls-2" d="M5.105,0C2.806,3.113.889,3.546,0,5.11" transform="translate(302.359 987.021) rotate(180)"/>
          </g>
        </g>
        <g id="Group_19" data-name="Group 19" transform="translate(26 1)">
          <g id="Group_16-2" data-name="Group 16" transform="translate(356.074 166.308)">
            <path id="Path_11-2" data-name="Path 11" class="cls-2" d="M287.031,981.91c-2.3,3.113-4.216,3.546-5.105,5.11" transform="translate(-4)"/>
            <path id="Path_14-2" data-name="Path 14" class="cls-2" d="M287.031,981.91c-2.3,3.113-4.216,3.546-5.105,5.11" transform="translate(8.886)"/>
            <path id="Path_12-2" data-name="Path 12" class="cls-2" d="M5.105,0C2.806,3.113.889,3.546,0,5.11" transform="translate(289.474 987.021) rotate(180)"/>
            <path id="Path_13-2" data-name="Path 13" class="cls-2" d="M5.105,0C2.806,3.113.889,3.546,0,5.11" transform="translate(302.359 987.021) rotate(180)"/>
          </g>
        </g>
        <g id="Group_20" data-name="Group 20" transform="translate(52 1)">
          <g id="Group_16-3" data-name="Group 16" transform="translate(356.074 166.308)">
            <path id="Path_11-3" data-name="Path 11" class="cls-2" d="M287.031,981.91c-2.3,3.113-4.216,3.546-5.105,5.11" transform="translate(-4)"/>
            <path id="Path_14-3" data-name="Path 14" class="cls-2" d="M287.031,981.91c-2.3,3.113-4.216,3.546-5.105,5.11" transform="translate(8.886)"/>
            <path id="Path_12-3" data-name="Path 12" class="cls-2" d="M5.105,0C2.806,3.113.889,3.546,0,5.11" transform="translate(289.474 987.021) rotate(180)"/>
            <path id="Path_13-3" data-name="Path 13" class="cls-2" d="M5.105,0C2.806,3.113.889,3.546,0,5.11" transform="translate(302.359 987.021) rotate(180)"/>
          </g>
        </g>
      </g>
    </g>
    <g id="Symbol_5_5" data-name="Symbol 5 – 5" transform="translate(-8 1089.782)">
      <g id="Group_22-2" data-name="Group 22" class="cls-1" transform="translate(11 1149)">
        <g id="Group_17-2" data-name="Group 17" transform="translate(0 1)">
          <g id="Group_16-4" data-name="Group 16" transform="translate(356.074 166.308)">
            <path id="Path_11-4" data-name="Path 11" class="cls-2" d="M287.031,981.91c-2.3,3.113-4.216,3.546-5.105,5.11" transform="translate(-4)"/>
            <path id="Path_14-4" data-name="Path 14" class="cls-2" d="M287.031,981.91c-2.3,3.113-4.216,3.546-5.105,5.11" transform="translate(8.886)"/>
            <path id="Path_12-4" data-name="Path 12" class="cls-2" d="M5.105,0C2.806,3.113.889,3.546,0,5.11" transform="translate(289.474 987.021) rotate(180)"/>
            <path id="Path_13-4" data-name="Path 13" class="cls-2" d="M5.105,0C2.806,3.113.889,3.546,0,5.11" transform="translate(302.359 987.021) rotate(180)"/>
          </g>
        </g>
        <g id="Group_19-2" data-name="Group 19" transform="translate(26 1)">
          <g id="Group_16-5" data-name="Group 16" transform="translate(356.074 166.308)">
            <path id="Path_11-5" data-name="Path 11" class="cls-2" d="M287.031,981.91c-2.3,3.113-4.216,3.546-5.105,5.11" transform="translate(-4)"/>
            <path id="Path_14-5" data-name="Path 14" class="cls-2" d="M287.031,981.91c-2.3,3.113-4.216,3.546-5.105,5.11" transform="translate(8.886)"/>
            <path id="Path_12-5" data-name="Path 12" class="cls-2" d="M5.105,0C2.806,3.113.889,3.546,0,5.11" transform="translate(289.474 987.021) rotate(180)"/>
            <path id="Path_13-5" data-name="Path 13" class="cls-2" d="M5.105,0C2.806,3.113.889,3.546,0,5.11" transform="translate(302.359 987.021) rotate(180)"/>
          </g>
        </g>
        <g id="Group_20-2" data-name="Group 20" transform="translate(52 1)">
          <g id="Group_16-6" data-name="Group 16" transform="translate(356.074 166.308)">
            <path id="Path_11-6" data-name="Path 11" class="cls-2" d="M287.031,981.91c-2.3,3.113-4.216,3.546-5.105,5.11" transform="translate(-4)"/>
            <path id="Path_14-6" data-name="Path 14" class="cls-2" d="M287.031,981.91c-2.3,3.113-4.216,3.546-5.105,5.11" transform="translate(8.886)"/>
            <path id="Path_12-6" data-name="Path 12" class="cls-2" d="M5.105,0C2.806,3.113.889,3.546,0,5.11" transform="translate(289.474 987.021) rotate(180)"/>
            <path id="Path_13-6" data-name="Path 13" class="cls-2" d="M5.105,0C2.806,3.113.889,3.546,0,5.11" transform="translate(302.359 987.021) rotate(180)"/>
          </g>
        </g>
      </g>
    </g>
    <g id="Symbol_5_6" data-name="Symbol 5 – 6" transform="translate(70 1089.782)">
      <g id="Group_22-3" data-name="Group 22" class="cls-1" transform="translate(11 1149)">
        <g id="Group_17-3" data-name="Group 17" transform="translate(0 1)">
          <g id="Group_16-7" data-name="Group 16" transform="translate(356.074 166.308)">
            <path id="Path_11-7" data-name="Path 11" class="cls-2" d="M287.031,981.91c-2.3,3.113-4.216,3.546-5.105,5.11" transform="translate(-4)"/>
            <path id="Path_14-7" data-name="Path 14" class="cls-2" d="M287.031,981.91c-2.3,3.113-4.216,3.546-5.105,5.11" transform="translate(8.886)"/>
            <path id="Path_12-7" data-name="Path 12" class="cls-2" d="M5.105,0C2.806,3.113.889,3.546,0,5.11" transform="translate(289.474 987.021) rotate(180)"/>
            <path id="Path_13-7" data-name="Path 13" class="cls-2" d="M5.105,0C2.806,3.113.889,3.546,0,5.11" transform="translate(302.359 987.021) rotate(180)"/>
          </g>
        </g>
        <g id="Group_19-3" data-name="Group 19" transform="translate(26 1)">
          <g id="Group_16-8" data-name="Group 16" transform="translate(356.074 166.308)">
            <path id="Path_11-8" data-name="Path 11" class="cls-2" d="M287.031,981.91c-2.3,3.113-4.216,3.546-5.105,5.11" transform="translate(-4)"/>
            <path id="Path_14-8" data-name="Path 14" class="cls-2" d="M287.031,981.91c-2.3,3.113-4.216,3.546-5.105,5.11" transform="translate(8.886)"/>
            <path id="Path_12-8" data-name="Path 12" class="cls-2" d="M5.105,0C2.806,3.113.889,3.546,0,5.11" transform="translate(289.474 987.021) rotate(180)"/>
            <path id="Path_13-8" data-name="Path 13" class="cls-2" d="M5.105,0C2.806,3.113.889,3.546,0,5.11" transform="translate(302.359 987.021) rotate(180)"/>
          </g>
        </g>
        <g id="Group_20-3" data-name="Group 20" transform="translate(52 1)">
          <g id="Group_16-9" data-name="Group 16" transform="translate(356.074 166.308)">
            <path id="Path_11-9" data-name="Path 11" class="cls-2" d="M287.031,981.91c-2.3,3.113-4.216,3.546-5.105,5.11" transform="translate(-4)"/>
            <path id="Path_14-9" data-name="Path 14" class="cls-2" d="M287.031,981.91c-2.3,3.113-4.216,3.546-5.105,5.11" transform="translate(8.886)"/>
            <path id="Path_12-9" data-name="Path 12" class="cls-2" d="M5.105,0C2.806,3.113.889,3.546,0,5.11" transform="translate(289.474 987.021) rotate(180)"/>
            <path id="Path_13-9" data-name="Path 13" class="cls-2" d="M5.105,0C2.806,3.113.889,3.546,0,5.11" transform="translate(302.359 987.021) rotate(180)"/>
          </g>
        </g>
      </g>
    </g>
  </g>
</svg>
