<svg xmlns="http://www.w3.org/2000/svg" xmlns:xlink="http://www.w3.org/1999/xlink" viewBox="0 0 26 25.794">
  <defs>
    <style>
      .cls-1 {
        fill: #f0765f;
      }

      .cls-2 {
        clip-path: url(#clip-path);
      }

      .cls-3 {
        fill: #fff;
        font-size: 13px;
        font-family: PaytoneOne, Paytone One;
        letter-spacing: 0.06em;
      }
    </style>
    <clipPath id="clip-path">
      <path id="Path_19" data-name="Path 19" class="cls-1" d="M0-1296.622H26v25.794H0Z" transform="translate(0 1296.622)"/>
    </clipPath>
  </defs>
  <g id="Group_740" data-name="Group 740" transform="translate(-91 -868)">
    <g id="Group_39" data-name="Group 39" transform="translate(91 868)">
      <g id="Group_38" data-name="Group 38" class="cls-2" transform="translate(0 0)">
        <g id="Group_37" data-name="Group 37" transform="translate(0 0)">
          <path id="Path_18" data-name="Path 18" class="cls-1" d="M-1105.508-636.071a4.086,4.086,0,0,0,3.562-4.052,4.086,4.086,0,0,0-4.086-4.086l-.669.006c0-.428-.005-.681-.005-.681a4.086,4.086,0,0,0-4.086-4.085,4.085,4.085,0,0,0-4.071,3.738,4.084,4.084,0,0,0-4.072-3.75,4.085,4.085,0,0,0-4.085,4.085s0,.248.005.669l-.68.006a4.085,4.085,0,0,0-4.086,4.085,4.087,4.087,0,0,0,3.449,4.036,4.085,4.085,0,0,0-3.427,4,4.087,4.087,0,0,0,3.266,4.031,8.713,8.713,0,0,1-1.287,1.315,7.926,7.926,0,0,1-1.2.823,4.171,4.171,0,0,1-.969.4l.534,2.183a6.969,6.969,0,0,0,2.036-.926,11,11,0,0,0,2.435-2.158,4.085,4.085,0,0,0,3.965,3.235,4.086,4.086,0,0,0,4.085-3.589,4.085,4.085,0,0,0,4.023,3.567,4.086,4.086,0,0,0,4.115-4.057s0-.248,0-.669h.68a4.085,4.085,0,0,0,4.114-4.056,4.086,4.086,0,0,0-3.549-4.08" transform="translate(1127.946 648.981)"/>
        </g>
      </g>
    </g>
    <text id="A" class="cls-3" transform="translate(103.8 884.733)"><tspan x="-4.542" y="0">A</tspan></text>
  </g>
</svg>
