<svg xmlns="http://www.w3.org/2000/svg" xmlns:xlink="http://www.w3.org/1999/xlink" viewBox="0 0 18 17.892">
  <defs>
    <style>
      .cls-1 {
        fill: #c5d92b;
      }

      .cls-2 {
        clip-path: url(#clip-path);
      }
    </style>
    <clipPath id="clip-path">
      <path id="Path_205" data-name="Path 205" class="cls-1" d="M0-1391.622H18v17.892H0Z" transform="translate(0 1391.622)"/>
    </clipPath>
  </defs>
  <g id="Group_284" data-name="Group 284" class="cls-2">
    <g id="Group_280" data-name="Group 280" transform="translate(0.108 0)">
      <path id="Path_201" data-name="Path 201" class="cls-1" d="M-202.735-641.672l.463,0c1.044-.008,3.605-.01,5.265-.007,0-1.691,0-4.3-.007-5.3,0-.258,0-.409,0-.409a2.639,2.639,0,0,0-2.64-2.641,2.64,2.64,0,0,0-2.641,2.641s0,.16,0,.432l-.44,0a2.64,2.64,0,0,0-2.641,2.64,2.641,2.641,0,0,0,2.641,2.641" transform="translate(205.376 650.029)"/>
    </g>
    <g id="Group_281" data-name="Group 281" transform="translate(9.612 9.513)">
      <path id="Path_202" data-name="Path 202" class="cls-1" d="M-442.122-2.311h-.463c-1.044,0-3.605-.016-5.265-.03-.014,1.691-.031,4.3-.031,5.3,0,.258,0,.409,0,.409a2.64,2.64,0,0,0,2.622,2.66A2.641,2.641,0,0,0-442.6,3.4s0-.16,0-.433h.44A2.64,2.64,0,0,0-439.5.349a2.64,2.64,0,0,0-2.621-2.66" transform="translate(447.88 2.341)"/>
    </g>
    <g id="Group_282" data-name="Group 282" transform="translate(9.642 0.008)">
      <path id="Path_203" data-name="Path 203" class="cls-1" d="M-.828-642.524c1.692,0,4.3,0,5.3-.008l.409,0a2.64,2.64,0,0,0,2.641-2.641,2.641,2.641,0,0,0-2.641-2.641l-.432,0c0-.277,0-.44,0-.44a2.641,2.641,0,0,0-2.641-2.64,2.64,2.64,0,0,0-2.641,2.64s0,.172,0,.463c.008,1.044.01,3.605.007,5.265" transform="translate(0.839 650.893)"/>
    </g>
    <g id="Group_283" data-name="Group 283" transform="translate(0 9.512)">
      <path id="Path_204" data-name="Path 204" class="cls-1" d="M-244.914,0h-.409a2.64,2.64,0,0,0-2.66,2.622,2.641,2.641,0,0,0,2.111,2.605,5.633,5.633,0,0,1-.832.85,5.115,5.115,0,0,1-.774.532,2.7,2.7,0,0,1-.627.261l.345,1.411a4.5,4.5,0,0,0,1.316-.6,7.113,7.113,0,0,0,1.574-1.394,2.64,2.64,0,0,0,2.563,2.091,2.64,2.64,0,0,0,2.659-2.621s0-.173,0-.464c0-1.044.016-3.6.03-5.265-1.691-.014-4.3-.031-5.3-.031" transform="translate(248.104 0)"/>
    </g>
  </g>
</svg>
