<svg xmlns="http://www.w3.org/2000/svg" xmlns:xlink="http://www.w3.org/1999/xlink" viewBox="0 0 375 128">
  <defs>
    <style>
      .cls-1 {
        fill: #f8f8f7;
      }

      .cls-2 {
        clip-path: url(#clip-path);
      }

      .cls-3 {
        fill: #edece7;
      }
    </style>
    <clipPath id="clip-path">
      <rect id="Rectangle_264" data-name="Rectangle 264" class="cls-1" width="375" height="30" transform="translate(0 1205)"/>
    </clipPath>
  </defs>
  <g id="Group_985" data-name="Group 985" transform="translate(0 -1052)">
    <g id="Mask_Group_48" data-name="Mask Group 48" class="cls-2" transform="translate(375 2287) rotate(180)">
      <path id="Path_324" data-name="Path 324" class="cls-3" d="M61.337,157.716c34.923-12.126,70.34-15.964,105.812-6.023s97.721,12.985,135.754,3.883,99.2-11.5,122.643-3.883,26.532,23.653,28.537,41.39-1.431,67.352,0,85.147,4.064,50.626,4.878,67.249,6.723,62.938-77.3,49.974-112.347-10.284-175.069,0-119.6,10.209-147.864,0-25.688-46.311-24.589-79.29S33.171,283.6,32.588,245.5,26.414,169.841,61.337,157.716Z" transform="translate(-57.199 825.27)"/>
    </g>
    <rect id="Rectangle_265" data-name="Rectangle 265" class="cls-3" width="375" height="100" transform="translate(0 1080)"/>
  </g>
</svg>
