<svg xmlns="http://www.w3.org/2000/svg" viewBox="0 0 78.172 6.298">
  <defs>
    <style>
      .cls-1 {
        opacity: 0.5;
      }

      .cls-2 {
        fill: none;
        stroke: #4b3218;
        stroke-width: 2px;
      }
    </style>
  </defs>
  <g id="Group_867" data-name="Group 867" transform="translate(-649.131 -453.624)">
    <g id="Symbol_21_298" data-name="Symbol 21 – 298" transform="translate(5 -1844)">
      <g id="Group_22" data-name="Group 22" class="cls-1" transform="translate(11 1149)">
        <g id="Group_17" data-name="Group 17" transform="translate(0 1)">
          <g id="Group_16" data-name="Group 16" transform="translate(356.074 166.308)">
            <path id="Path_11" data-name="Path 11" class="cls-2" d="M287.031,981.91c-2.3,3.113-4.216,3.546-5.105,5.11" transform="translate(-4)"/>
            <path id="Path_14" data-name="Path 14" class="cls-2" d="M287.031,981.91c-2.3,3.113-4.216,3.546-5.105,5.11" transform="translate(8.886)"/>
            <path id="Path_12" data-name="Path 12" class="cls-2" d="M5.105,0C2.806,3.113.889,3.546,0,5.11" transform="translate(289.474 987.021) rotate(180)"/>
            <path id="Path_13" data-name="Path 13" class="cls-2" d="M5.105,0C2.806,3.113.889,3.546,0,5.11" transform="translate(302.359 987.021) rotate(180)"/>
          </g>
        </g>
        <g id="Group_19" data-name="Group 19" transform="translate(26 1)">
          <g id="Group_16-2" data-name="Group 16" transform="translate(356.074 166.308)">
            <path id="Path_11-2" data-name="Path 11" class="cls-2" d="M287.031,981.91c-2.3,3.113-4.216,3.546-5.105,5.11" transform="translate(-4)"/>
            <path id="Path_14-2" data-name="Path 14" class="cls-2" d="M287.031,981.91c-2.3,3.113-4.216,3.546-5.105,5.11" transform="translate(8.886)"/>
            <path id="Path_12-2" data-name="Path 12" class="cls-2" d="M5.105,0C2.806,3.113.889,3.546,0,5.11" transform="translate(289.474 987.021) rotate(180)"/>
            <path id="Path_13-2" data-name="Path 13" class="cls-2" d="M5.105,0C2.806,3.113.889,3.546,0,5.11" transform="translate(302.359 987.021) rotate(180)"/>
          </g>
        </g>
        <g id="Group_20" data-name="Group 20" transform="translate(52 1)">
          <g id="Group_16-3" data-name="Group 16" transform="translate(356.074 166.308)">
            <path id="Path_11-3" data-name="Path 11" class="cls-2" d="M287.031,981.91c-2.3,3.113-4.216,3.546-5.105,5.11" transform="translate(-4)"/>
            <path id="Path_14-3" data-name="Path 14" class="cls-2" d="M287.031,981.91c-2.3,3.113-4.216,3.546-5.105,5.11" transform="translate(8.886)"/>
            <path id="Path_12-3" data-name="Path 12" class="cls-2" d="M5.105,0C2.806,3.113.889,3.546,0,5.11" transform="translate(289.474 987.021) rotate(180)"/>
            <path id="Path_13-3" data-name="Path 13" class="cls-2" d="M5.105,0C2.806,3.113.889,3.546,0,5.11" transform="translate(302.359 987.021) rotate(180)"/>
          </g>
        </g>
      </g>
    </g>
  </g>
</svg>
