<svg xmlns="http://www.w3.org/2000/svg" xmlns:xlink="http://www.w3.org/1999/xlink" viewBox="0 0 18 12.625">
  <defs>
    <style>
      .cls-1 {
        fill: #4b3218;
      }

      .cls-2 {
        clip-path: url(#clip-path);
      }
    </style>
    <clipPath id="clip-path">
      <path id="Path_207" data-name="Path 207" class="cls-1" d="M0-359.124H18V-346.5H0Z" transform="translate(0 359.124)"/>
    </clipPath>
  </defs>
  <g id="Group_285" data-name="Group 285" transform="translate(0 359.124)">
    <g id="Group_286" data-name="Group 286" class="cls-2" transform="translate(0 -359.124)">
      <g id="Group_285-2" data-name="Group 285" transform="translate(0 0)">
        <path id="Path_206" data-name="Path 206" class="cls-1" d="M-445.5-285.925l-.07-.021a10.422,10.422,0,0,0-1.5-.273,16.041,16.041,0,0,0-1.8-.1,15.207,15.207,0,0,0-2.338.171,9.386,9.386,0,0,0-.959.2l-.07.021v-8.98q.151-.053.331-.1a9.344,9.344,0,0,1,1.349-.245,14.9,14.9,0,0,1,1.687-.092,14.254,14.254,0,0,1,2.182.159,8.336,8.336,0,0,1,.854.178c.119.032.23.066.33.1Zm-7.733,0-.07-.021a10.4,10.4,0,0,0-1.5-.273,16.057,16.057,0,0,0-1.8-.1,15.207,15.207,0,0,0-2.338.171,9.408,9.408,0,0,0-.958.2l-.07.021v-8.98q.152-.053.331-.1a9.381,9.381,0,0,1,1.35-.245,14.9,14.9,0,0,1,1.686-.092,14.243,14.243,0,0,1,2.182.159,8.307,8.307,0,0,1,.854.178q.18.049.331.1Zm8.687-9.528a.5.5,0,0,0-.245-.246,4.98,4.98,0,0,0-.779-.274,10.5,10.5,0,0,0-1.5-.273,16.033,16.033,0,0,0-1.8-.1,15.138,15.138,0,0,0-2.338.171,9.394,9.394,0,0,0-.959.2,5.553,5.553,0,0,0-.57.186,5.513,5.513,0,0,0-.57-.186,10.476,10.476,0,0,0-1.5-.273,16.049,16.049,0,0,0-1.8-.1,15.138,15.138,0,0,0-2.338.171,9.419,9.419,0,0,0-.958.2,5.01,5.01,0,0,0-.779.274.5.5,0,0,0-.244.246c-.38.1-.813.273-.813.589v9.155a1.6,1.6,0,0,0,1.595,1.595h6.426v.083a.312.312,0,0,0,.312.313h1.334a.312.312,0,0,0,.312-.313v-.083h6.426a1.6,1.6,0,0,0,1.595-1.595v-9.155c0-.316-.433-.494-.813-.589" transform="translate(461.734 296.343)"/>
      </g>
    </g>
  </g>
</svg>
