<svg xmlns="http://www.w3.org/2000/svg" xmlns:xlink="http://www.w3.org/1999/xlink" viewBox="0 0 12.604 12.529">
  <defs>
    <style>
      .cls-1 {
        fill: #4b3218;
      }

      .cls-2 {
        clip-path: url(#clip-path);
      }
    </style>
    <clipPath id="clip-path">
      <path id="Path_205" data-name="Path 205" class="cls-1" d="M0-1391.622H12.6v12.529H0Z" transform="translate(0 1391.622)"/>
    </clipPath>
  </defs>
  <g id="Group_280" data-name="Group 280" transform="translate(0 1391.622)">
    <g id="Group_284" data-name="Group 284" class="cls-2" transform="translate(0 -1391.622)">
      <g id="Group_280-2" data-name="Group 280" transform="translate(0.075 0)">
        <path id="Path_201" data-name="Path 201" class="cls-1" d="M-203.527-644.177l.324,0c.731-.006,2.524-.007,3.687-.005,0-1.184,0-3.012-.005-3.709,0-.181,0-.286,0-.286a1.848,1.848,0,0,0-1.849-1.849,1.849,1.849,0,0,0-1.849,1.849s0,.112,0,.3l-.308,0a1.849,1.849,0,0,0-1.849,1.849,1.849,1.849,0,0,0,1.849,1.849" transform="translate(205.376 650.029)"/>
      </g>
      <g id="Group_281" data-name="Group 281" transform="translate(6.73 6.661)">
        <path id="Path_202" data-name="Path 202" class="cls-1" d="M-443.848-2.32h-.324c-.731,0-2.524-.011-3.687-.021-.01,1.184-.022,3.012-.021,3.709,0,.181,0,.286,0,.286a1.849,1.849,0,0,0,1.836,1.863,1.849,1.849,0,0,0,1.862-1.836s0-.112,0-.3h.308a1.849,1.849,0,0,0,1.862-1.836,1.849,1.849,0,0,0-1.835-1.862" transform="translate(447.88 2.341)"/>
      </g>
      <g id="Group_282" data-name="Group 282" transform="translate(6.752 0.006)">
        <path id="Path_203" data-name="Path 203" class="cls-1" d="M-.831-645.033c1.185,0,3.012,0,3.709-.005l.287,0a1.849,1.849,0,0,0,1.849-1.849,1.849,1.849,0,0,0-1.849-1.849l-.3,0c0-.194,0-.308,0-.308a1.849,1.849,0,0,0-1.849-1.849,1.849,1.849,0,0,0-1.849,1.849s0,.121,0,.324c.006.731.007,2.524,0,3.687" transform="translate(0.839 650.893)"/>
      </g>
      <g id="Group_283" data-name="Group 283" transform="translate(0 6.661)">
        <path id="Path_204" data-name="Path 204" class="cls-1" d="M-245.87,0h-.286a1.849,1.849,0,0,0-1.862,1.836,1.85,1.85,0,0,0,1.478,1.824,3.944,3.944,0,0,1-.583.6,3.582,3.582,0,0,1-.542.373,1.887,1.887,0,0,1-.439.183l.242.988a3.154,3.154,0,0,0,.922-.419,4.98,4.98,0,0,0,1.1-.976,1.849,1.849,0,0,0,1.795,1.464,1.849,1.849,0,0,0,1.862-1.835s0-.121,0-.325c0-.731.011-2.524.021-3.686C-243.345.011-245.173,0-245.87,0" transform="translate(248.104 0)"/>
      </g>
    </g>
  </g>
</svg>
