<svg xmlns="http://www.w3.org/2000/svg" xmlns:xlink="http://www.w3.org/1999/xlink" viewBox="0 0 56 55.555">
  <defs>
    <style>
      .cls-1 {
        fill: #c5d92b;
      }

      .cls-2 {
        clip-path: url(#clip-path);
      }

      .cls-3 {
        fill: #4b3218;
      }
    </style>
    <clipPath id="clip-path">
      <path id="Path_19" data-name="Path 19" class="cls-1" d="M0-1296.622H56v55.555H0Z" transform="translate(0 1296.622)"/>
    </clipPath>
  </defs>
  <g id="Group_813" data-name="Group 813" transform="translate(-68 -2456.228)">
    <g id="Group_39" data-name="Group 39" transform="translate(68 2456.228)">
      <g id="Group_38" data-name="Group 38" class="cls-2" transform="translate(0 0)">
        <g id="Group_37" data-name="Group 37" transform="translate(0 0)">
          <path id="Path_18" data-name="Path 18" class="cls-1" d="M-1079.618-621.175a8.8,8.8,0,0,0,7.672-8.728,8.8,8.8,0,0,0-8.8-8.8l-1.441.012c-.008-.922-.012-1.466-.012-1.466a8.8,8.8,0,0,0-8.8-8.8,8.8,8.8,0,0,0-8.768,8.051,8.8,8.8,0,0,0-8.769-8.077,8.8,8.8,0,0,0-8.8,8.8s0,.534.011,1.441c-.922.007-1.465.012-1.465.012a8.8,8.8,0,0,0-8.8,8.8,8.8,8.8,0,0,0,7.428,8.693,8.8,8.8,0,0,0-7.382,8.622,8.8,8.8,0,0,0,7.034,8.682,18.769,18.769,0,0,1-2.773,2.833,17.037,17.037,0,0,1-2.578,1.773,8.981,8.981,0,0,1-2.088.871l1.149,4.7a15.009,15.009,0,0,0,4.387-2,23.7,23.7,0,0,0,5.244-4.647,8.8,8.8,0,0,0,8.541,6.968,8.8,8.8,0,0,0,8.8-7.729,8.8,8.8,0,0,0,8.666,7.684,8.8,8.8,0,0,0,8.862-8.737s0-.534,0-1.442c.922,0,1.465,0,1.465,0a8.8,8.8,0,0,0,8.861-8.736,8.8,8.8,0,0,0-7.643-8.788" transform="translate(1127.946 648.981)"/>
        </g>
      </g>
    </g>
    <g id="Symbol_32_1" data-name="Symbol 32 – 1">
      <path id="Path_299" data-name="Path 299" class="cls-3" d="M-14.15-8.25h2.4l3.293,4.441V-8.25H-6.31V0h-2.4l-3.3-4.3V0H-14.15Zm10.13,0H1.77v1.816H-1.113v1.5H1.523v1.512H-1.113V-1.8H1.77V0H-4.02Zm7.324,0H6l.785,5.262.809-3.867h2.789l.82,3.867.773-5.262h2.707L12.808,0h-2.8L8.988-4.441,7.968,0H5.179Z" transform="translate(96 2489.053)"/>
    </g>
  </g>
</svg>
