<svg xmlns="http://www.w3.org/2000/svg" viewBox="0 0 353.463 154.66">
  <defs>
    <style>
      .cls-1 {
        fill: #ebf59f;
      }
    </style>
  </defs>
  <path id="Path_278" data-name="Path 278" class="cls-1" d="M13346.442,2114.156c5.81-11.173,9.166-22.809,5.172-22.677-6.828.227-19.432.688-25.941,1.09-38.038,2.349-64.492,6.043-104.583-7.078-50.176-16.421-52.738-65.619-34.879-85.171s37.3-34.532,93.188-33.894,86.957-3.793,140.172-6.509,88.91,7.844,99.973,26.322,23.246,77.945-24.578,95.284c-35.294,12.8-53.575,10.842-88.548,9.636-11.536-1.768-21.234-2.747-28.3-.144C13370.109,2093.061,13367.875,2106.285,13346.442,2114.156Z" transform="translate(-13176.128 -1959.496)"/>
</svg>
